<?xml version="1.0" standalone="no"?>
<!DOCTYPE svg PUBLIC "-//W3C//DTD SVG 20010904//EN"
 "http://www.w3.org/TR/2001/REC-SVG-20010904/DTD/svg10.dtd">
<svg version="1.0" xmlns="http://www.w3.org/2000/svg"
 width="512.000000pt" height="512.000000pt" viewBox="0 0 512.000000 512.000000"
 preserveAspectRatio="xMidYMid meet">
<metadata>
Created by potrace 1.11, written by Peter Selinger 2001-2013
</metadata>
<g transform="translate(0.000000,512.000000) scale(0.100000,-0.100000)"
fill="#000000" stroke="none">
<path d="M1055 3208 c-3 -7 -6 -242 -7 -523 -3 -489 -4 -511 -23 -544 -36 -61
-67 -76 -155 -76 -64 0 -84 4 -107 21 -45 33 -65 85 -71 185 l-5 89 -113 0
-114 0 0 -64 c0 -197 83 -341 228 -397 46 -18 78 -22 167 -22 218 0 333 64
398 222 22 55 22 63 25 589 l3 532 -111 0 c-79 0 -112 -4 -115 -12z"/>
<path d="M1510 2560 l0 -660 475 0 475 0 0 100 0 100 -360 0 -360 0 0 195 0
195 330 0 330 0 0 90 0 90 -330 0 -330 0 0 175 0 175 355 0 355 0 0 100 0 100
-470 0 -470 0 0 -660z"/>
<path d="M2670 2560 l0 -660 110 0 110 0 2 293 3 292 298 3 297 2 0 90 0 90
-297 2 -298 3 0 170 0 170 338 3 337 2 0 100 0 100 -450 0 -450 0 0 -660z"/>
<path d="M3755 3208 c-3 -7 -4 -303 -3 -658 l3 -645 112 -3 113 -3 2 293 3
293 298 3 297 2 0 90 0 90 -297 2 -298 3 0 170 0 170 338 3 337 2 0 100 0 100
-450 0 c-351 0 -452 -3 -455 -12z"/>
</g>
</svg>
